<svg width="385" height="385" viewBox="0 0 385 385" fill="none" xmlns="http://www.w3.org/2000/svg">
<g clip-path="url(#clip0_1_193)">
<path d="M104.611 205.13H11.6651C10.2124 205.13 9.03088 206.312 9.03088 207.764V243.889C9.03088 245.342 10.2124 246.523 11.6651 246.523H104.611V205.13ZM20.3203 219.806C20.3203 217.938 21.8398 216.419 23.7071 216.419H89.9353C91.8026 216.419 93.3222 217.938 93.3222 219.806C93.3222 221.673 91.8026 223.192 89.9353 223.192H23.7071C21.8398 223.192 20.3203 221.673 20.3203 219.806Z" fill="#FFC061"/>
<path d="M84.3079 205.13C83.9045 208.987 83.1624 212.759 82.1018 216.419H89.9346C91.8019 216.419 93.3214 217.938 93.3214 219.806C93.3214 221.673 91.8019 223.192 89.9346 223.192H79.7328C76.1777 231.837 70.8207 239.73 64.0553 246.523H104.609V205.13H84.3079Z" fill="#E0931F"/>
<path d="M346.645 96.9308C348.289 103.475 354.137 108.046 360.869 108.046C368.961 108.046 375.545 101.462 375.545 93.3705C375.545 85.2786 368.961 78.695 360.869 78.695C359.155 78.695 357.443 79.0052 355.784 79.6174L355.716 79.6422L355.65 79.6715C355.599 79.694 355.544 79.7135 355.487 79.7308L355.378 79.7631L355.273 79.8067C349.871 82.0405 346.313 87.2601 346.208 93.1046L346.206 93.2526L346.609 96.7844L346.645 96.9308Z" fill="#8D8A94"/>
<path d="M366.89 288.669C371.662 288.669 375.545 284.787 375.545 280.014V240.026L326.903 288.668H366.89V288.669Z" fill="#FFC061"/>
<path d="M360.869 114.819C357.76 114.819 354.748 114.157 351.918 112.852L348.268 111.168L363.429 242.559L375.546 230.443V109.51L372.103 111.633C368.722 113.718 364.838 114.819 360.869 114.819Z" fill="#625D6B"/>
<path d="M148.899 216.471L176.86 226.963V214.337L169.106 191.084C167.115 185.081 161.521 181.048 155.186 181.048H135.468V197.093C135.467 205.677 140.865 213.465 148.899 216.471Z" fill="#8D8A94"/>
<path d="M170.988 192.205C169.679 188.258 166.806 185.172 163.195 183.514C163.266 184.813 163.314 186.119 163.314 187.437C163.314 199.069 160.484 209.97 155.559 219.385L178.742 228.085V215.458L170.988 192.205Z" fill="#736F7B"/>
<path d="M176.86 234.197L146.518 222.817C135.857 218.819 128.694 208.481 128.694 197.093V181.048H114.019C112.566 181.048 111.385 182.229 111.385 183.682V246.523H176.86V234.197Z" fill="#504B5A"/>
<path d="M198.309 277.379H35.7482C27.6564 277.379 21.0728 283.963 21.0728 292.055C21.0728 300.147 27.6564 306.73 35.7482 306.73H198.309C206.401 306.73 212.985 300.147 212.985 292.055C212.985 283.963 206.401 277.379 198.309 277.379ZM195.923 289.657C196.546 289.029 197.415 288.668 198.308 288.668C199.201 288.668 200.071 289.029 200.706 289.669C201.335 290.293 201.695 291.163 201.695 292.055C201.695 292.947 201.335 293.818 200.694 294.452C200.07 295.081 199.201 295.442 198.308 295.442C197.415 295.442 196.545 295.082 195.911 294.44C195.282 293.817 194.921 292.947 194.921 292.055C194.921 291.163 195.282 290.293 195.923 289.657ZM177.613 292.055C177.613 293.922 176.093 295.442 174.226 295.442H59.8316C57.9643 295.442 56.4448 293.922 56.4448 292.055C56.4448 290.188 57.9643 288.668 59.8316 288.668H174.226C176.093 288.669 177.613 290.188 177.613 292.055ZM33.3627 289.657C33.9861 289.029 34.8552 288.668 35.7482 288.668C36.6413 288.668 37.5111 289.029 38.1406 289.663C38.773 290.295 39.1351 291.166 39.1351 292.055C39.1351 292.934 38.7655 293.827 38.1338 294.452C37.5194 295.072 36.6278 295.442 35.7482 295.442C34.8552 295.442 33.9854 295.082 33.3499 294.44C32.731 293.826 32.3614 292.934 32.3614 292.055C32.3614 291.175 32.731 290.284 33.3627 289.657Z" fill="#736F7B"/>
<path d="M175.531 188.943L180.439 203.632L191.106 175.187C194.029 167.386 200.236 161.404 208.137 158.775L341.807 114.213L340.531 103.213L175.302 131.474L174.965 131.661C171.297 133.7 168.366 136.754 166.486 140.497L149.606 174.275H155.186C164.433 174.275 172.61 180.169 175.531 188.943Z" fill="#E0931F"/>
<path d="M192.664 292.055C192.664 290.565 193.267 289.112 194.32 288.067C195.366 287.013 196.819 286.411 198.308 286.411C199.798 286.411 201.251 287.014 202.297 288.067C203.351 289.113 203.952 290.565 203.952 292.055C203.952 293.545 203.35 294.998 202.297 296.044C201.251 297.097 199.798 297.699 198.308 297.699C196.819 297.699 195.365 297.097 194.32 296.044C193.267 294.998 192.664 293.545 192.664 292.055ZM59.8316 286.411C56.716 286.411 54.1869 288.94 54.1869 292.056C54.1869 295.172 56.716 297.701 59.8316 297.701H174.226C177.341 297.701 179.871 295.172 179.871 292.056C179.871 288.94 177.341 286.411 174.226 286.411H59.8316ZM23.707 214.162C20.5914 214.162 18.0623 216.691 18.0623 219.807C18.0623 222.922 20.5914 225.451 23.707 225.451H89.9353C93.0509 225.451 95.58 222.922 95.58 219.807C95.58 216.691 93.0509 214.162 89.9353 214.162H23.707ZM35.7483 297.7C37.231 297.7 38.6912 297.097 39.7368 296.044C40.7906 294.998 41.3923 293.539 41.3923 292.056C41.3923 290.573 40.7899 289.12 39.7368 288.067C38.6905 287.014 37.2385 286.412 35.7483 286.412C34.2581 286.412 32.8054 287.014 31.7598 288.067C30.706 289.114 30.1044 290.573 30.1044 292.056C30.1044 293.539 30.7068 294.999 31.7598 296.044C32.8054 297.097 34.2581 297.7 35.7483 297.7ZM23.3307 292.055C23.3307 285.206 28.8996 279.638 35.7483 279.638H198.309C205.158 279.638 210.727 285.206 210.727 292.055C210.727 298.904 205.158 304.473 198.309 304.473H35.7483C28.8996 304.473 23.3307 298.904 23.3307 292.055ZM384.576 93.3705C384.576 80.2979 373.942 69.6635 360.869 69.6635C357.889 69.6635 355.037 70.22 352.403 71.2288L176.868 121.164C175.121 121.66 173.443 122.323 171.833 123.113C171.743 123.158 171.645 123.203 171.554 123.255C165.917 126.123 161.273 130.736 158.414 136.463L140.63 172.016H114.019C107.584 172.016 102.354 177.246 102.354 183.681V196.098H89.5597V180.151C89.5597 177.035 88.3481 174.107 86.1428 171.903L81.8832 167.651C79.6854 165.445 76.1108 165.445 73.9055 167.651C71.7002 169.856 71.7002 173.423 73.9055 175.628L78.1576 179.888C78.2327 179.956 78.2703 180.053 78.2703 180.152V196.099H11.665C5.23009 196.099 0 201.33 0 207.764V243.888C0 250.323 5.23084 255.553 11.665 255.553H84.2905V268.347H35.7483C22.6757 268.347 12.0413 278.982 12.0413 292.054C12.0413 305.127 22.6757 315.761 35.7483 315.761H198.309C211.382 315.761 222.016 305.127 222.016 292.054C222.016 278.982 211.382 268.347 198.309 268.347H149.767V255.553H180.247C183.362 255.553 185.892 253.024 185.892 249.909V214.808L199.559 178.36C201.523 173.121 205.693 169.11 210.991 167.341L340.671 124.113L354.947 247.847L316.385 286.41H306.684C303.568 286.41 301.039 288.939 301.039 292.054C301.039 295.17 303.568 297.699 306.684 297.699H366.892C376.645 297.699 384.578 289.766 384.578 280.013V231.847V93.3705H384.576ZM366.89 286.411H332.353L373.287 245.478V280.015C373.288 283.543 370.42 286.411 366.89 286.411ZM365.136 237.658L350.972 114.902C353.99 116.295 357.34 117.077 360.869 117.077C365.423 117.077 369.675 115.783 373.287 113.555V229.508L365.136 237.658ZM360.869 105.788C355.059 105.788 350.19 101.777 348.835 96.381L348.467 93.1451C348.557 88.0728 351.695 83.7305 356.136 81.894C356.286 81.849 356.429 81.7964 356.565 81.7363C357.912 81.2398 359.356 80.9536 360.869 80.9536C367.718 80.9536 373.287 86.5225 373.287 93.3712C373.287 100.22 367.718 105.788 360.869 105.788ZM207.423 156.633C198.873 159.478 192.152 165.958 188.991 174.394L180.562 196.874L177.672 188.227C174.444 178.534 165.405 172.016 155.185 172.016H153.258L168.506 141.506C170.184 138.165 172.841 135.425 176.062 133.635L338.563 105.841L339.353 112.653L207.423 156.633ZM337.163 93.3705C337.163 93.3855 337.163 93.4005 337.163 93.4155C337.163 93.4381 337.163 93.4606 337.163 93.4831C337.17 93.867 337.178 94.2433 337.193 94.6271L272.56 105.675L338.021 87.0565C337.463 89.0733 337.163 91.1877 337.163 93.3705ZM113.642 244.266V183.681C113.642 183.47 113.808 183.305 114.019 183.305H126.436V197.093C126.436 209.42 134.188 220.604 145.725 224.931L174.602 235.761V244.265H113.642V244.266ZM149.691 214.357C142.534 211.678 137.725 204.739 137.725 197.093V183.305H144.1C144.107 183.305 144.115 183.305 144.115 183.305C144.122 183.305 144.13 183.305 144.137 183.305H155.186C160.544 183.305 165.278 186.714 166.964 191.794L174.603 214.704V223.704L149.691 214.357ZM95.58 268.349V255.555H107.998H138.477V268.349H95.58ZM11.665 244.266C11.4539 244.266 11.2887 244.1 11.2887 243.889V207.765C11.2887 207.554 11.4539 207.388 11.665 207.388H102.353V244.266H11.665V244.266Z" fill="#525252"/>
</g>
<defs>
<clipPath id="clip0_1_193">
<rect width="384.576" height="384.576" fill="white" transform="translate(0 0.424561)"/>
</clipPath>
</defs>
</svg>
