<svg width="386" height="385" viewBox="0 0 386 385" fill="none" xmlns="http://www.w3.org/2000/svg">
<g clip-path="url(#clip0_1_408)">
<path d="M12.3938 243.088H231.775V107.998C231.775 106.545 230.594 105.364 229.141 105.364H12.3938C10.9412 105.364 9.75964 106.545 9.75964 107.998V240.454C9.75964 241.906 10.9419 243.088 12.3938 243.088ZM30.4562 219.005H211.079C212.947 219.005 214.466 220.525 214.466 222.392C214.466 224.259 212.947 225.779 211.079 225.779H30.4562C28.5889 225.779 27.0693 224.259 27.0693 222.392C27.0693 220.524 28.5889 219.005 30.4562 219.005ZM211.079 201.695H30.4562C28.5889 201.695 27.0693 200.176 27.0693 198.309C27.0693 196.441 28.5889 194.922 30.4562 194.922H211.079C212.947 194.922 214.466 196.441 214.466 198.309C214.466 200.176 212.947 201.695 211.079 201.695ZM211.079 177.613H30.4562C28.5889 177.613 27.0693 176.093 27.0693 174.226C27.0693 172.359 28.5889 170.839 30.4562 170.839H211.079C212.947 170.839 214.466 172.359 214.466 174.226C214.466 176.093 212.947 177.613 211.079 177.613ZM211.079 153.529H30.4562C28.5889 153.529 27.0693 152.01 27.0693 150.143C27.0693 148.275 28.5889 146.756 30.4562 146.756H211.079C212.947 146.756 214.466 148.275 214.466 150.143C214.466 152.01 212.947 153.529 211.079 153.529ZM211.079 129.446H30.4562C28.5889 129.446 27.0693 127.927 27.0693 126.059C27.0693 124.192 28.5889 122.672 30.4562 122.672H211.079C212.947 122.672 214.466 124.192 214.466 126.059C214.466 127.927 212.947 129.446 211.079 129.446Z" fill="#DCDBDE"/>
<path d="M211.079 120.415C214.195 120.415 216.724 122.944 216.724 126.06C216.724 129.175 214.195 131.704 211.079 131.704H30.456C27.3404 131.704 24.8113 129.175 24.8113 126.06C24.8113 122.944 27.3404 120.415 30.456 120.415H211.079Z" fill="#525252"/>
<path d="M211.079 144.498C214.195 144.498 216.724 147.027 216.724 150.142C216.724 153.258 214.195 155.787 211.079 155.787H30.456C27.3404 155.787 24.8113 153.258 24.8113 150.142C24.8113 147.027 27.3404 144.498 30.456 144.498H211.079Z" fill="#525252"/>
<path d="M211.079 168.581C214.195 168.581 216.724 171.11 216.724 174.226C216.724 177.342 214.195 179.871 211.079 179.871H30.456C27.3404 179.871 24.8113 177.342 24.8113 174.226C24.8113 171.11 27.3404 168.581 30.456 168.581H211.079Z" fill="#525252"/>
<path d="M211.079 192.665C214.195 192.665 216.724 195.194 216.724 198.309C216.724 201.425 214.195 203.954 211.079 203.954H30.456C27.3404 203.954 24.8113 201.425 24.8113 198.309C24.8113 195.194 27.3404 192.665 30.456 192.665H211.079Z" fill="#525252"/>
<path d="M211.079 216.747C214.195 216.747 216.724 219.276 216.724 222.391C216.724 225.507 214.195 228.036 211.079 228.036H30.456C27.3404 228.036 24.8113 225.507 24.8113 222.391C24.8113 219.276 27.3404 216.747 30.456 216.747H211.079Z" fill="#525252"/>
<path d="M376.274 198.934L375.015 195.675H313.433C301.606 195.675 291.984 186.053 291.984 174.226V144.122C291.984 142.255 293.503 140.735 295.371 140.735H353.9L352.335 136.697C349.286 128.759 341.523 123.425 333.016 123.425H283.329C278.557 123.425 274.675 127.308 274.675 132.08V243.088H307.413C327.11 243.088 343.941 257.803 346.56 277.316L346.866 279.594L349.138 279.248C349.288 279.225 349.43 279.213 349.558 279.213H373.642C375.094 279.213 376.276 278.031 376.276 276.579V255.882H367.621C362.434 255.882 358.214 251.662 358.214 246.475V240.454C358.214 235.267 362.434 231.047 367.621 231.047H376.276V198.934H376.274Z" fill="#FFC061"/>
<path d="M377.894 227.188V201.959L376.296 195.297H346.945C351.374 222.032 335.656 254.238 335.656 254.238C335.656 254.238 346.606 269.578 347.936 277.94L348.317 280.34H374.571C376.403 280.34 377.894 278.85 377.894 277.018V258.509V227.188Z" fill="#E0931F"/>
<path d="M333.297 142.465H354.168L352.041 137.5L351.97 137.348L351.986 137.373C348.541 128.401 338.043 115.414 320.957 120.865C325.758 127.563 331.27 134.825 333.297 142.465Z" fill="#E0931F"/>
<path d="M365.361 238.782V248.147C365.361 248.452 365.642 248.733 365.947 248.733H375.898V238.197H365.947C365.642 238.196 365.361 238.477 365.361 238.782Z" fill="#EDEDEE"/>
<path d="M298.757 174.226C298.757 182.317 305.34 188.901 313.432 188.901H372.411L356.496 147.508H298.757V174.226Z" fill="#504B5A"/>
<path d="M307.411 249.861C289.359 249.861 274.673 264.547 274.673 282.599C274.673 300.651 289.359 315.337 307.411 315.337C325.463 315.337 340.149 300.651 340.149 282.599C340.149 264.547 325.463 249.861 307.411 249.861ZM322.84 282.6C322.84 291.107 315.919 298.028 307.412 298.028C298.905 298.028 291.984 291.107 291.984 282.6C291.984 274.092 298.905 267.171 307.412 267.171C308.888 267.171 310.133 268.127 310.596 269.447C315.508 270.636 319.375 274.503 320.565 279.416C321.885 279.877 322.84 281.123 322.84 282.6Z" fill="#504B5A"/>
<path d="M310.596 269.446C309.572 269.198 308.511 269.052 307.412 269.052C299.943 269.052 293.865 275.13 293.865 282.599C293.865 290.068 299.943 296.145 307.412 296.145C314.881 296.145 320.958 290.068 320.958 282.599C320.958 281.5 320.813 280.438 320.565 279.415C319.375 274.502 315.508 270.636 310.596 269.446Z" fill="#DCDBDE"/>
<path d="M280.438 253.768L284.61 249.862H137.548L141.72 253.768C148.351 259.976 152.672 268.319 153.887 277.259L154.153 279.213H165.548V276.579C165.548 268.071 172.469 261.15 180.976 261.15H217.101C225.608 261.15 232.529 268.071 232.529 276.579V279.213H268.006L268.272 277.259C269.486 268.318 273.807 259.976 280.438 253.768Z" fill="#736F7B"/>
<path d="M267.9 132.08L267.908 131.704V129.446H238.549V243.088H267.9V132.08Z" fill="#A7A5AC"/>
<path d="M217.1 267.923H180.976C176.204 267.923 172.32 271.806 172.32 276.578V288.62C172.32 293.392 176.203 297.274 180.976 297.274H217.1C221.872 297.274 225.755 293.392 225.755 288.62V276.578C225.755 271.805 221.872 267.923 217.1 267.923ZM183.61 282.6C183.61 281.72 183.979 280.828 184.611 280.202C185.226 279.582 186.117 279.213 186.997 279.213C187.876 279.213 188.769 279.582 189.394 280.214C190.014 280.828 190.384 281.721 190.384 282.6C190.384 283.479 190.014 284.371 189.382 284.997C188.768 285.617 187.876 285.986 186.997 285.986C186.117 285.986 185.224 285.617 184.599 284.985C183.979 284.371 183.61 283.479 183.61 282.6Z" fill="#A7A5AC"/>
<path d="M114.747 249.861C96.6948 249.861 82.0088 264.547 82.0088 282.599C82.0088 300.651 96.6948 315.337 114.747 315.337C132.798 315.337 147.484 300.651 147.484 282.599C147.484 264.547 132.798 249.861 114.747 249.861ZM130.175 282.6C130.175 291.107 123.255 298.028 114.747 298.028C106.24 298.028 99.3192 291.107 99.3192 282.6C99.3192 274.092 106.24 267.171 114.747 267.171C116.223 267.171 117.469 268.127 117.931 269.447C122.844 270.636 126.711 274.503 127.9 279.416C129.22 279.878 130.175 281.123 130.175 282.6Z" fill="#504B5A"/>
<path d="M117.932 269.446C116.909 269.198 115.846 269.052 114.748 269.052C107.278 269.052 101.201 275.13 101.201 282.599C101.201 290.068 107.278 296.145 114.748 296.145C122.217 296.145 128.294 290.068 128.294 282.599C128.294 281.5 128.148 280.438 127.9 279.415C126.711 274.502 122.844 270.636 117.932 269.446Z" fill="#DCDBDE"/>
<path d="M42.4982 249.861C24.4464 249.861 9.76044 264.547 9.76044 282.599C9.76044 300.651 24.4464 315.337 42.4982 315.337C60.55 315.337 75.236 300.651 75.236 282.599C75.236 264.547 60.55 249.861 42.4982 249.861ZM57.9264 282.6C57.9264 291.107 51.0055 298.028 42.4982 298.028C33.991 298.028 27.0701 291.107 27.0701 282.6C27.0701 274.092 33.991 267.171 42.4982 267.171C43.9742 267.171 45.2196 268.127 45.6823 269.447C50.5954 270.636 54.4614 274.503 55.6512 279.416C56.9709 279.878 57.9264 281.123 57.9264 282.6Z" fill="#504B5A"/>
<path d="M45.6822 269.446C44.6584 269.198 43.5971 269.052 42.4982 269.052C35.029 269.052 28.9517 275.13 28.9517 282.599C28.9517 290.068 35.029 296.145 42.4982 296.145C49.9674 296.145 56.0448 290.068 56.0448 282.599C56.0448 281.5 55.899 280.438 55.6512 279.415C54.4614 274.502 50.5946 270.636 45.6822 269.446Z" fill="#DCDBDE"/>
<path d="M345.923 175.935C345.864 175.485 345.817 175.173 345.79 175.034C343.468 163.684 338.731 152.887 331.237 144.009L295.12 143.413L294.62 173.68C294.424 185.515 305.202 195.323 318.642 195.545C318.642 195.545 347.42 196.05 347.474 196.051C348.14 196.062 346.469 180.099 345.923 175.935Z" fill="#736F7B"/>
<path d="M385.305 198.308V276.579C385.305 283.013 380.074 288.244 373.64 288.244H349.557C349.301 288.244 349.045 288.221 348.797 288.184C346.057 308.586 328.544 324.368 307.411 324.368C286.293 324.368 268.803 308.616 266.033 288.244H234.786V288.62C234.786 298.373 226.853 306.306 217.1 306.306H180.975C171.222 306.306 163.289 298.373 163.289 288.62V288.244H156.124C153.355 308.616 135.864 324.368 114.746 324.368C99.3405 324.368 85.8616 315.977 78.6215 303.529C71.3814 315.977 57.9024 324.368 42.4968 324.368C19.4688 324.368 0.729004 305.628 0.729004 282.6C0.729004 270.588 5.8314 259.744 13.9819 252.12H12.394C5.95909 252.12 0.729004 246.889 0.729004 240.455V107.998C0.729004 101.563 5.95984 96.3326 12.394 96.3326H229.142C235.577 96.3326 240.807 101.563 240.807 107.998V120.415H247.58V85.3744C247.58 82.0552 246.286 78.9395 243.946 76.5915L237.195 69.8404C234.989 67.6351 234.989 64.068 237.195 61.8627C239.4 59.6574 242.967 59.6574 245.172 61.8627L251.923 68.6138C256.402 73.092 258.87 79.0447 258.87 85.3744V120.415H270.053C273.297 116.727 278.046 114.394 283.329 114.394H333.015C345.23 114.394 356.376 122.056 360.763 133.45L384.929 196.284C384.944 196.322 384.951 196.367 384.967 196.404C385.012 196.517 385.049 196.638 385.079 196.751C385.102 196.826 385.124 196.901 385.139 196.984C385.162 197.082 385.184 197.18 385.207 197.278C385.222 197.375 385.237 197.481 385.252 197.579C385.259 197.654 385.274 197.737 385.282 197.82C385.289 197.94 385.297 198.054 385.297 198.174C385.298 198.218 385.305 198.263 385.305 198.308ZM374.017 276.579V258.14H367.619C361.184 258.14 355.954 252.909 355.954 246.475V240.454C355.954 234.019 361.185 228.789 367.619 228.789H374.017V199.355L373.468 197.932H313.433C300.36 197.932 289.726 187.298 289.726 174.225V144.121C289.726 141.006 292.255 138.477 295.371 138.477H350.603L350.227 137.506C347.51 130.431 340.594 125.682 333.015 125.682H283.329C279.799 125.682 276.931 128.549 276.931 132.079V240.83H307.411C328.544 240.83 346.057 256.611 348.797 277.014C349.045 276.977 349.301 276.954 349.557 276.954H373.64C373.851 276.955 374.017 276.789 374.017 276.579ZM374.017 246.851V240.078H367.619C367.423 240.078 367.243 240.258 367.243 240.454V246.475C367.243 246.67 367.423 246.851 367.619 246.851H374.017ZM369.125 186.643L354.946 149.766H301.015V174.226C301.015 181.075 306.584 186.643 313.432 186.643H369.125ZM337.892 282.6C337.892 265.794 324.217 252.12 307.412 252.12C290.607 252.12 276.932 265.795 276.932 282.6C276.932 299.405 290.607 313.08 307.412 313.08C324.217 313.08 337.892 299.405 337.892 282.6ZM278.896 252.119H235.163H143.263C150.112 258.531 154.801 267.208 156.125 276.955H163.29V276.579C163.29 266.825 171.222 258.893 180.976 258.893H217.1C226.854 258.893 234.786 266.825 234.786 276.579V276.955H266.034C267.358 267.209 272.048 258.531 278.896 252.119ZM265.643 132.08C265.643 131.952 265.65 131.832 265.65 131.704H240.807V240.83H265.643V132.08ZM229.518 240.83V107.998C229.518 107.786 229.353 107.621 229.142 107.621H12.394C12.1829 107.621 12.0177 107.786 12.0177 107.998V240.454C12.0177 240.665 12.1829 240.83 12.394 240.83H229.518ZM223.497 288.62V276.579C223.497 273.049 220.63 270.181 217.1 270.181H180.975C177.446 270.181 174.578 273.048 174.578 276.579V288.62C174.578 292.149 177.445 295.017 180.975 295.017H217.1C220.63 295.017 223.497 292.149 223.497 288.62ZM145.228 282.6C145.228 265.794 131.553 252.12 114.748 252.12C97.9427 252.12 84.2677 265.795 84.2677 282.6C84.2677 299.405 97.9427 313.08 114.748 313.08C131.553 313.08 145.228 299.405 145.228 282.6ZM86.2311 252.119H71.0133C73.9938 254.903 76.5596 258.125 78.6222 261.67C80.6848 258.125 83.2514 254.904 86.2311 252.119ZM72.9783 282.6C72.9783 265.794 59.3033 252.12 42.4983 252.12C25.6934 252.12 12.0184 265.795 12.0184 282.6C12.0184 299.405 25.6934 313.08 42.4983 313.08C59.3033 313.08 72.9783 299.405 72.9783 282.6ZM313.809 282.6C313.809 286.129 310.942 288.997 307.411 288.997C303.881 288.997 301.014 286.13 301.014 282.6C301.014 279.069 303.881 276.202 307.411 276.202C310.527 276.202 313.056 273.673 313.056 270.558C313.056 267.442 310.527 264.913 307.411 264.913C297.658 264.913 289.725 272.846 289.725 282.599C289.725 292.352 297.658 300.285 307.411 300.285C317.165 300.285 325.097 292.352 325.097 282.599C325.097 279.483 322.568 276.954 319.453 276.954C316.338 276.955 313.809 279.483 313.809 282.6ZM186.996 276.955C185.513 276.955 184.053 277.557 183.008 278.61C181.954 279.657 181.352 281.116 181.352 282.599C181.352 284.082 181.955 285.542 183.008 286.587C184.054 287.641 185.514 288.243 186.996 288.243C188.478 288.243 189.939 287.64 190.985 286.587C192.038 285.541 192.64 284.081 192.64 282.599C192.64 281.116 192.038 279.656 190.985 278.61C189.939 277.557 188.479 276.955 186.996 276.955ZM121.144 282.6C121.144 286.129 118.277 288.997 114.747 288.997C111.217 288.997 108.35 286.13 108.35 282.6C108.35 279.069 111.217 276.202 114.747 276.202C117.863 276.202 120.392 273.673 120.392 270.558C120.392 267.442 117.863 264.913 114.747 264.913C104.993 264.913 97.0609 272.846 97.0609 282.599C97.0609 292.352 104.993 300.285 114.747 300.285C124.5 300.285 132.433 292.352 132.433 282.599C132.433 279.483 129.904 276.954 126.788 276.954C123.672 276.954 121.144 279.483 121.144 282.6ZM48.8949 282.6C48.8949 286.129 46.0279 288.997 42.4976 288.997C38.9673 288.997 36.1003 286.13 36.1003 282.6C36.1003 279.069 38.9673 276.202 42.4976 276.202C45.6133 276.202 48.1423 273.673 48.1423 270.558C48.1423 267.442 45.6133 264.913 42.4976 264.913C32.7442 264.913 24.8116 272.846 24.8116 282.599C24.8116 292.352 32.7442 300.285 42.4976 300.285C52.251 300.285 60.1836 292.352 60.1836 282.599C60.1836 279.483 57.6546 276.954 54.5389 276.954C51.4232 276.954 48.8949 279.483 48.8949 282.6Z" fill="#525252"/>
</g>
<defs>
<clipPath id="clip0_1_408">
<rect width="384.576" height="384.576" fill="white" transform="translate(0.729004 0.000488281)"/>
</clipPath>
</defs>
</svg>
