<svg width="385" height="385" viewBox="0 0 385 385" fill="none" xmlns="http://www.w3.org/2000/svg">
<g clip-path="url(#clip0_1_820)">
<path d="M349.274 194.289L305.723 145.794L304.18 148.543C303.122 150.429 301.7 152.019 299.951 153.267L292 158.95L334.516 204.416C334.901 204.834 335.18 205.333 335.322 205.862L344.904 241.3C345.216 242.443 346.261 243.241 347.443 243.241H348.858C350.311 243.241 351.493 242.059 351.493 240.606V200.064C351.493 197.922 350.703 195.87 349.274 194.289Z" fill="#FFC061"/>
<path d="M174.594 221.667L179.321 231.11L296.015 147.761C299.397 145.343 300.252 140.749 297.975 137.278L297.805 137.024C297.749 136.947 297.686 136.869 297.614 136.78L297.577 136.734L296.835 135.904L296.758 135.832C295.343 134.52 293.489 133.797 291.536 133.797C290.038 133.797 288.586 134.23 287.336 135.046L166.525 213.837L169.368 215.737C171.59 217.223 173.397 219.273 174.594 221.667Z" fill="#FFC061"/>
<path d="M210.382 256.036H186.86L189.761 259.695C192.49 263.138 194.373 267.226 195.206 271.518L195.562 273.345H204.362C209.134 273.345 213.016 269.463 213.016 264.691V258.67C213.016 257.217 211.835 256.036 210.382 256.036Z" fill="#625D6B"/>
<path d="M168.238 256.036C156.825 256.036 147.541 265.32 147.541 276.732C147.541 288.144 156.825 297.429 168.238 297.429C179.65 297.429 188.934 288.144 188.934 276.732C188.934 265.32 179.65 256.036 168.238 256.036ZM168.26 280.118C166.389 280.118 164.866 278.599 164.866 276.731C164.866 274.864 166.386 273.345 168.253 273.345H168.26C170.128 273.345 171.647 274.864 171.647 276.731C171.646 278.599 170.128 280.118 168.26 280.118Z" fill="#504B5A"/>
<path d="M147.541 249.262H180.816L168.536 224.701C167.069 221.746 164.103 219.911 160.794 219.911H147.541V249.262Z" fill="#E0931F"/>
<path d="M158.83 132.957C158.83 132.566 158.821 132.166 158.806 131.767L158.717 129.6H132.113C123.606 129.6 116.685 122.679 116.685 114.172V87.4554H108.03C106.578 87.4554 105.396 88.6369 105.396 90.0896V146.91H158.83V132.957Z" fill="#504B5A"/>
<path d="M132.113 122.827H157.729L147.618 87.4554H123.458V114.172C123.458 118.945 127.341 122.827 132.113 122.827Z" fill="#736F7B"/>
<path d="M157.729 122.827L147.618 87.4554H142.649C142.649 100.453 139.364 112.578 133.691 122.827H157.729Z" fill="#736F7B"/>
<path d="M72.4669 256.036L75.3678 259.695C78.0966 263.138 79.9797 267.226 80.8134 271.518L81.1687 273.345H140.915L141.27 271.518C142.104 267.227 143.987 263.138 146.716 259.695L149.617 256.036H72.4669Z" fill="#625D6B"/>
<path d="M140.767 216.524C140.767 211.752 136.885 207.87 132.113 207.87H35.7817C31.0098 207.87 27.1273 211.752 27.1273 216.524V219.158H126.093C127.96 219.158 129.479 220.678 129.479 222.545C129.479 224.412 127.96 225.932 126.093 225.932H27.1265V249.262H140.767V216.524Z" fill="#FFC061"/>
<path d="M132.113 207.87H124.837C124.074 211.727 122.968 215.496 121.551 219.158H126.092C127.959 219.158 129.479 220.678 129.479 222.545C129.479 224.412 127.959 225.932 126.092 225.932H118.516C114.127 234.505 107.964 242.374 100.38 249.262H140.768V216.524C140.767 211.752 136.885 207.87 132.113 207.87Z" fill="#E0931F"/>
<path d="M92.6019 192.441C92.6019 187.679 88.7216 183.797 83.9354 183.787C79.1703 183.797 75.293 187.679 75.293 192.441V201.096H92.6027V192.441H92.6019Z" fill="#FFC061"/>
<path d="M53.8434 256.036C42.4308 256.036 33.1469 265.32 33.1469 276.732C33.1469 288.144 42.4308 297.429 53.8434 297.429C65.256 297.429 74.5399 288.144 74.5399 276.732C74.5399 265.32 65.256 256.036 53.8434 256.036ZM53.866 280.118C51.9942 280.118 50.4716 278.599 50.4716 276.731C50.4716 274.864 51.9911 273.345 53.8584 273.345H53.866C55.7333 273.345 57.2528 274.864 57.2528 276.731C57.2528 278.599 55.7333 280.118 53.866 280.118Z" fill="#504B5A"/>
<path d="M68.5187 192.442C68.5187 192.442 68.5262 192.152 68.5262 192.065V189.807H53.8432C49.0713 189.807 45.1887 193.69 45.1887 198.462V201.096H68.5187V192.442Z" fill="#E0931F"/>
<path d="M11.6983 256.036C10.2457 256.036 9.06415 257.217 9.06415 258.67V264.691C9.06415 269.463 12.9467 273.345 17.7186 273.345H26.5188L26.8741 271.518C27.7078 267.227 29.5909 263.138 32.3197 259.695L35.2206 256.036H11.6983Z" fill="#625D6B"/>
<path d="M384.441 293.424C385.194 296.449 383.358 299.52 380.332 300.273C379.873 300.385 379.414 300.445 378.955 300.445C376.425 300.445 374.131 298.73 373.483 296.163L369.743 281.202C369.035 278.35 366.484 276.355 363.541 276.355H354.503V294.793C354.503 297.916 351.974 300.438 348.858 300.438C345.743 300.438 343.214 297.916 343.214 294.793V276.355H334.175C331.233 276.355 328.682 278.349 327.974 281.202L324.234 296.163C323.473 299.189 320.41 301.025 317.385 300.273C314.359 299.52 312.523 296.449 313.275 293.424L317.016 278.462C318.988 270.575 326.047 265.066 334.175 265.066H343.213V251.467C339.841 250.15 337.169 247.297 336.184 243.655L326.965 209.571L286.144 165.905L185.269 237.965L189.792 247.004H210.382C216.817 247.004 222.047 252.242 222.047 258.669V264.69C222.047 274.443 214.115 282.376 204.361 282.376H197.423C194.773 296.08 182.702 306.458 168.237 306.458C153.772 306.458 141.7 296.08 139.051 282.376H83.0284C80.3791 296.08 68.3078 306.458 53.8426 306.458C39.3775 306.458 27.3061 296.08 24.6569 282.376H17.718C7.96614 282.376 0.0335083 274.443 0.0335083 264.69V258.669C0.0335083 252.241 5.26435 247.004 11.6985 247.004H18.0958V216.524C18.0958 206.778 26.0285 198.838 35.7818 198.838H36.1581V198.461C36.1581 188.716 44.0908 180.775 53.8441 180.775H70.6723C73.2014 177.901 76.6476 175.853 80.5542 175.086L96.3661 148.738V90.0883C96.3661 83.6609 101.597 78.4233 108.031 78.4233H150.176C152.698 78.4233 154.91 80.0938 155.602 82.5177L165.792 118.175C166.258 119.816 166.642 121.479 166.951 123.15C167.522 124.038 167.861 125.084 167.861 126.213C167.861 126.792 167.771 127.349 167.613 127.868C167.77 129.561 167.861 131.255 167.861 132.956V144.651H168.238C171.353 144.651 173.882 147.18 173.882 150.296C173.882 153.419 171.353 155.94 168.238 155.94H105.208L92.5647 177.006C97.9683 180.039 101.633 185.818 101.633 192.441V198.838H132.113C139.895 198.838 146.51 203.888 148.873 210.88H154.517L282.405 127.478C288.937 123.218 297.427 124.159 302.92 129.262C303.025 129.352 303.131 129.442 303.237 129.54C303.297 129.608 303.364 129.676 303.432 129.744C303.454 129.767 303.484 129.797 303.514 129.827L303.951 130.316C304.131 130.511 304.312 130.692 304.477 130.903L355.992 188.251C358.912 191.502 360.523 195.701 360.523 200.067V240.609C360.523 244.996 358.092 248.819 354.502 250.813V265.067H363.54C371.668 265.067 378.727 270.576 380.699 278.464L384.441 293.424ZM349.235 240.607V200.065C349.235 198.485 348.656 196.972 347.594 195.798L306.149 149.649C304.975 151.741 303.35 153.615 301.265 155.105L295.41 159.289L336.178 202.887C336.803 203.565 337.262 204.377 337.502 205.273L347.083 240.705C347.128 240.87 347.278 240.983 347.444 240.983H348.859C349.069 240.983 349.235 240.817 349.235 240.607ZM294.702 145.924C297.103 144.208 297.705 140.942 296.065 138.481C296.05 138.466 296.042 138.444 296.027 138.421C295.975 138.338 295.915 138.271 295.855 138.195L295.222 137.487C293.461 135.854 290.699 135.546 288.569 136.938L170.623 213.86C173.121 215.531 175.206 217.841 176.614 220.656L180.159 227.738L294.702 145.924ZM210.759 264.69V258.669C210.759 258.465 210.594 258.292 210.382 258.292H191.53C194.435 261.957 196.497 266.323 197.423 271.086H204.361C207.891 271.087 210.759 268.219 210.759 264.69ZM186.675 276.731C186.675 266.564 178.405 258.292 168.237 258.292C158.07 258.292 149.798 266.563 149.798 276.731C149.798 286.898 158.069 295.17 168.237 295.17C178.405 295.17 186.675 286.899 186.675 276.731ZM177.163 247.004L166.514 225.705C165.43 223.523 163.233 222.168 160.794 222.168H149.799V247.004H177.163ZM156.572 144.652V132.957C156.572 132.595 156.564 132.226 156.549 131.858H132.113C122.36 131.858 114.427 123.925 114.427 114.172V89.7128H108.03C107.819 89.7128 107.653 89.8855 107.653 90.0891V144.652H156.572V144.652ZM154.736 120.569L145.916 89.7128H125.716V114.172C125.716 117.701 128.583 120.569 132.114 120.569H154.736ZM144.944 258.293H77.1365C80.0419 261.958 82.1037 266.323 83.0291 271.087H139.052C139.977 266.323 142.04 261.958 144.944 258.293ZM138.51 247.004V216.524C138.51 213.002 135.643 210.126 132.113 210.126H35.7818C32.2523 210.126 29.3845 213.001 29.3845 216.524V216.9H126.092C129.208 216.9 131.737 219.429 131.737 222.545C131.737 225.668 129.208 228.189 126.092 228.189H29.3845V247.004H138.51V247.004ZM90.3443 198.838V192.441C90.3443 188.919 87.4773 186.051 83.947 186.044C83.947 186.044 83.947 186.044 83.9395 186.044C80.4175 186.051 77.5497 188.918 77.5497 192.441V198.838H90.3443ZM72.282 276.731C72.282 266.564 64.0114 258.292 53.8434 258.292C43.6754 258.292 35.4048 266.563 35.4048 276.731C35.4048 286.898 43.6754 295.17 53.8434 295.17C64.0114 295.17 72.282 286.899 72.282 276.731ZM66.2617 192.441C66.2617 192.321 66.2693 192.193 66.2693 192.065H53.8434C50.3138 192.065 47.4461 194.939 47.4461 198.462V198.838H66.261V192.441H66.2617ZM30.551 258.293H11.6985C11.4874 258.293 11.3222 258.466 11.3222 258.669V264.69C11.3222 268.22 14.1892 271.088 17.7195 271.088H24.6584C25.5838 266.323 27.6464 261.958 30.551 258.293ZM168.253 271.087C165.137 271.087 162.608 273.616 162.608 276.732C162.608 279.855 165.144 282.376 168.26 282.376C171.376 282.376 173.905 279.855 173.905 276.732C173.905 273.616 171.376 271.087 168.26 271.087H168.253ZM53.8584 271.087C50.7427 271.087 48.2137 273.616 48.2137 276.732C48.2137 279.855 50.7502 282.376 53.8659 282.376C56.9816 282.376 59.5106 279.855 59.5106 276.732C59.5106 273.616 56.9816 271.087 53.8659 271.087H53.8584Z" fill="#525252"/>
</g>
<defs>
<clipPath id="clip0_1_820">
<rect width="384.576" height="384.576" fill="white" transform="translate(0.0334473 0.15332)"/>
</clipPath>
</defs>
</svg>
