<svg id="Camada_1" data-name="Camada 1" xmlns="http://www.w3.org/2000/svg" viewBox="0 0 65.32 98.01"><defs><style>.cls-1{fill:#fff;}.cls-2{fill:#ef0633;}</style></defs><title>caminhao</title><circle class="cls-1" cx="32.66" cy="31.34" r="25.62"/><path class="cls-2" d="M62,3.26c-12.78-5-27.57-1.54-36.32,8.46a32.81,32.81,0,0,0-4.45,37.46Q33.56,72.06,46,94.89C46.93,96.63,47.46,99,50,99s3.17-2.27,4.11-4Q66.51,72.13,78.79,49.24c2.59-4.82,3.89-10,3.87-13.24C82.76,20.31,74.55,8.15,62,3.26ZM50,54.09a22.41,22.41,0,0,1-22.3-22.2A22.26,22.26,0,1,1,50,54.09Z" transform="translate(-17.34 -1)"/><path class="cls-2" d="M64.38,28.41v.78h3.78V31H64.38v.78h3.78v4.51H66v1.54H62.58a2.84,2.84,0,0,1-5.67,0h-13v-.73H57a2.84,2.84,0,0,1,5.59,0h2.91V35.92l-7.56-7V26.11h3.56V23.69H56.1V34.83H40.3a2.84,2.84,0,1,1-3.57,2.75,2.72,2.72,0,0,1,.34-1.34l-1.45-4.65H33.54l-1.7-6.4h20l1.78-3.63H64.77l-1.21,2.13H62.07v2.42h6.09v2.3Z" transform="translate(-17.34 -1)"/></svg>