<?xml version="1.0" encoding="utf-8"?>
<!-- Generator: Adobe Illustrator 24.0.1, SVG Export Plug-In . SVG Version: 6.00 Build 0)  -->
<svg version="1.0" id="Camada_1" xmlns="http://www.w3.org/2000/svg" xmlns:xlink="http://www.w3.org/1999/xlink" x="0px" y="0px"
	 viewBox="0 0 105 105" style="enable-background:new 0 0 105 105;" xml:space="preserve">
<style type="text/css">
	.st0{fill:#FFFFFF;}
	.st1{fill:#EF0633;}
</style>
<g>
	<circle class="st0" cx="52.5" cy="34.1" r="27"/>
	<path class="st1" d="M65.2,3.5c-13.5-5.3-29.1-1.6-38.3,8.9c-9.7,11.1-11.6,26.5-4.7,39.5c8.6,16.1,17.3,32.1,26,48.2
		c1,1.8,1.6,4.3,4.3,4.3c2.7,0,3.3-2.4,4.3-4.2c8.7-16.1,17.3-32.1,26-48.2c2.7-5.1,4.1-10.5,4.1-13.9C87,21.4,78.4,8.6,65.2,3.5z
		 M52.5,57C39.7,57,29.1,46.5,29,33.6c0-12.9,10.4-23.3,23.5-23.3C65.6,10.3,76,20.6,76,33.6C76,46.5,65.5,57.1,52.5,57z"/>
	<g>
		<path class="st1" d="M70.2,26.6c-0.3,1.1-0.8,2.2-1,3.4c-0.5,3.3-4,3.5-5.8,2c-0.5-0.4-0.8-0.9-1.2-1.3c0-0.1,0.1-0.1,0.1-0.2
			c0.3,0.1,0.7,0.3,0.9,0.4c1.1-1.1,2.2-2.2,3.3-3.3c-1.8-2.2-3.6-4.4-5.5-6.7c-1.8,1.4-3.4,2.8-5.2,4.1c-1.4,1-2.2,2.4-2.5,4.1
			c0,0.3,0.1,0.7,0.3,0.9c0.9,1.1,1.3,2.5,1.5,3.9c0.3,2.1,0.1,4.1-0.4,6.3c0.5,0,1,0.1,1.5,0.1c0,0.5,0,1.1,0,1.7c-1.3,0-2.6,0-4,0
			c0,0.4,0,0.8-0.1,1.3c0.8,0,1.6,0,2.3,0c-0.4,1-0.9,1.9-1.3,2.9c-2.2,0-4.6,0-7,0c-0.4,0-0.6-0.2-0.7-0.6c-0.2-0.8-0.6-1.5-1-2.2
			c0.4,0,1,0,1.6,0c0-0.5,0-0.8,0-1.3c-0.4,0-0.8,0-1.1,0c-2.5,0-5,0-7.5,0c-1.3,0-1.5-0.2-1.5-1.5c0-1.2,0-2.4,0-3.6
			c0-0.7,0.4-1,1.1-1c2.1,0,4.3,0,6.4,0c0.5,0,0.8-0.2,0.9-0.7c0.3-1.4,0.6-2.9,0.9-4.3c0.1-0.6,0.5-1,1.2-1c1.1,0,2.2,0,3.3,0
			c0.1-0.5,0.1-0.9,0.2-1.3c0.3-1.7,1.2-3,2.4-4.1c2.5-2.6,4.9-5.3,7.4-7.9c0.4-0.5,0.8-0.9,0.7-1.6c-0.1-0.8,0.7-0.6,1.1-1
			c0.1,0,0.1,0,0.2,0c1.8,3.7,3.6,7.5,5.5,11.2c0.1,0.3,0.4,0.5,0.7,0.6c0.8,0.3,1.6,0.6,2.5,0.9C70.2,26.5,70.2,26.6,70.2,26.6z
			 M48.5,38c1.4,0.3,2.8,0.5,4.1,0.8c0.6,0.1,0.9-0.1,1-0.6c0.5-2.2,0.6-4.4-0.1-6.5c-0.1-0.2-0.3-0.4-0.4-0.4c-1.5,0-3.1,0-4.6,0
			C48.5,33.5,48.5,35.7,48.5,38z M47.6,37.8c0-2.3,0-4.5,0-6.6c-1.2-0.1-1.2-0.1-1.3,0.9c0,0.2-0.1,0.5-0.1,0.7
			c-0.3,1.6-0.5,3.1-0.8,4.7C46.2,37.6,46.9,37.7,47.6,37.8z M60.2,17c-0.1,0-0.1,0-0.2-0.1c-1.3,1.3-2.5,2.7-3.8,4
			c1.3-0.6,2.5-1.3,3.7-2c0.1-0.1,0.2-0.2,0.2-0.4C60.2,18.1,60.2,17.5,60.2,17z M67.6,26.2c0.6,0.7,0.9,1.2,1.4,1.7
			c0.1-0.5,0.2-0.8,0.3-1.2C68.8,26.7,68.3,26.5,67.6,26.2z"/>
		<path class="st1" d="M41.6,48.5c-1.8-0.7-2.5-1.7-2.2-3.3c0.2-1.3,1.4-2.2,2.8-2.2c1.3,0.1,2.5,1.2,2.5,2.4c0.1,1.6-0.5,2.3-2.2,3
			C42.2,48.5,41.9,48.5,41.6,48.5z M40.4,45.9c0,0.8,0.8,1.6,1.7,1.6c0.9,0,1.7-0.8,1.7-1.7c0-0.9-0.8-1.7-1.7-1.7
			C41.1,44.1,40.4,44.8,40.4,45.9z"/>
		<path class="st1" d="M56.3,48.5c-1.8-0.7-2.6-2-2.1-3.5c0.4-1.2,1.5-2,2.8-1.9c1.3,0.1,2.3,1,2.5,2.2c0.2,1.4-0.4,2.5-1.6,3
			c-0.2,0.1-0.4,0.1-0.6,0.2C56.9,48.5,56.6,48.5,56.3,48.5z M58.4,45.9c0-1-0.7-1.7-1.7-1.8c-0.8,0-1.7,0.8-1.7,1.7
			c0,0.9,0.8,1.7,1.7,1.7C57.7,47.5,58.4,46.8,58.4,45.9z"/>
		<path class="st1" d="M35.4,43.7c0.2-0.5,0.6-0.7,1.2-0.7c1.1,0,2.1,0,3.1,0c-0.4,0.9-0.8,1.8-1.3,2.8c-1.7,0.3-2.4,0.1-3-1
			C35.4,44.5,35.4,44.1,35.4,43.7z"/>
		<path class="st1" d="M60.1,44.8c-0.4-0.6-0.8-1.1-1.1-1.6C59.9,43,60,43.1,60.1,44.8z"/>
	</g>
</g>
</svg>
