<svg xmlns="http://www.w3.org/2000/svg" xmlns:xlink="http://www.w3.org/1999/xlink" version="1.1" style="" xml:space="preserve" width="247.574" height="247.574"><rect id="backgroundrect" width="100%" height="100%" x="0" y="0" fill="none" stroke="none"/>
















<g class="currentLayer" style=""><title>Layer 1</title><g id="svg_1" class="" fill="#ffffff" fill-opacity="1">
	<path d="M123.787,0.001C55.53,0.001,0,55.531,0,123.787s55.53,123.786,123.787,123.786s123.787-55.53,123.787-123.786   S192.044,0.001,123.787,0.001z M123.787,232.573C63.802,232.573,15,183.772,15,123.787S63.802,15.001,123.787,15.001   s108.787,48.801,108.787,108.786S183.773,232.573,123.787,232.573z" id="svg_2" fill="#ffffff" fill-opacity="1"/>
	<path d="M133.047,123.786l42.316-58.429c2.43-3.355,1.68-8.044-1.675-10.474c-3.356-2.429-8.043-1.68-10.474,1.675L123.787,111   l-39.43-54.441c-2.43-3.356-7.12-4.105-10.474-1.675c-3.354,2.43-4.104,7.119-1.675,10.474l42.317,58.429l-42.317,58.43   c-2.43,3.355-1.68,8.044,1.675,10.474c1.33,0.963,2.868,1.426,4.394,1.426c2.322,0,4.613-1.076,6.08-3.101l39.43-54.442   l39.43,54.442c1.467,2.025,3.757,3.101,6.08,3.101c1.525,0,3.064-0.463,4.393-1.426c3.355-2.43,4.105-7.119,1.675-10.474   L133.047,123.786z" id="svg_3" fill="#ffffff" fill-opacity="1"/>
</g><g id="svg_4">
</g><g id="svg_5">
</g><g id="svg_6">
</g><g id="svg_7">
</g><g id="svg_8">
</g><g id="svg_9">
</g><g id="svg_10">
</g><g id="svg_11">
</g><g id="svg_12">
</g><g id="svg_13">
</g><g id="svg_14">
</g><g id="svg_15">
</g><g id="svg_16">
</g><g id="svg_17">
</g><g id="svg_18">
</g></g></svg>