<svg id="Camada_1" data-name="Camada 1" xmlns="http://www.w3.org/2000/svg" viewBox="0 0 65.05 97.6"><defs><style>.cls-1{fill:#fff;}.cls-2{fill:#ef0633;}</style></defs><title>tracerclaw</title><circle class="cls-1" cx="32.75" cy="31.21" r="25.52"/><path class="cls-2" d="M62,3.45c-12.73-5-27.46-1.53-36.17,8.43a32.67,32.67,0,0,0-4.43,37.3Q33.61,72,46,94.71c1,1.73,1.49,4.07,4,4.09s3.16-2.26,4.09-4Q66.44,72,78.67,49.24c2.58-4.79,3.87-9.9,3.85-13.18C82.62,20.43,74.45,8.32,62,3.45ZM50,54.07A22.31,22.31,0,0,1,27.83,32,22.17,22.17,0,1,1,50,54.07Z" transform="translate(-17.47 -1.2)"/><rect class="cls-2" x="21.96" y="33.68" width="11.16" height="1.21"/><path class="cls-2" d="M56.24,39,50.6,36.59H39.43L33.82,39c-2.61,1.37-1.65,6,1.37,5.9H54.91A3.17,3.17,0,0,0,56.24,39ZM39.86,37.8H50.22v.65H39.86Zm-4.5,6a2,2,0,1,1,2-2A2.05,2.05,0,0,1,35.36,43.8Zm16.06,0H38.66v-.65H51.42Zm3.28,0a2,2,0,1,1,2-2A2.05,2.05,0,0,1,54.7,43.8Z" transform="translate(-17.47 -1.2)"/><path class="cls-2" d="M68,34.88a6,6,0,0,1-4.34-1v-.51h1.51a.52.52,0,0,0,.53-.52.53.53,0,0,0-.53-.53H63.6l0-.72h1.15a.49.49,0,0,0,0-1H63.56c.11-1.23,1.17-1.55,2.78-1.33l.76-1.75H63.59l-1.41-8.67.14-2.5a2.45,2.45,0,0,0-2.44-2.6H56.15a2.54,2.54,0,0,0-1.88.84l-7.42,8.27H45.61a1,1,0,0,0-1,1l-.13,9.4H44L44,25.1l-10.52,1c-.82.13-1,.7-.95,1.52v5c0,1.44.33,1.86,1.45,1.84H53.79c1,0,1.56-.29,1.56-1.41V30.85l-.94-7.07a1,1,0,0,0-.77-.86l.88-3.86,2.85-2.86c0,.78.19,1.25.62,1.38L60.19,25l-.16.1a.91.91,0,0,0-.42.9l.4,2.84.33.23,0,5.77a2.23,2.23,0,0,0,2.23,2.24h6.05ZM53.14,20.51l-.54,2.34H50.8Zm1.1,10.56H47V24H53.3Zm4.54-13.51a1.44,1.44,0,0,0,.42-1.47h.85l.49,8.23Zm3.42,10V22.89l.69,4.66Z" transform="translate(-17.47 -1.2)"/></svg>